<svg width="51" height="50" viewBox="0 0 51 50" fill="none" xmlns="http://www.w3.org/2000/svg">
<path d="M47.579 13.0627C45.2988 9.23236 42.2057 6.19986 38.2991 3.96454C34.3919 1.7291 30.1264 0.611664 25.4996 0.611664C20.8734 0.611664 16.6065 1.72944 12.7001 3.96454C8.79312 6.19975 5.7002 9.23236 3.41993 13.0627C1.14002 16.893 0 21.0756 0 25.6106C0 31.0581 1.62112 35.9566 4.86417 40.3075C8.10687 44.6586 12.296 47.6695 17.4311 49.3403C18.0288 49.4491 18.4713 49.3726 18.759 49.1127C19.0469 48.8526 19.1906 48.5267 19.1906 48.1366C19.1906 48.0715 19.1849 47.4858 19.1739 46.3788C19.1625 45.2719 19.1571 44.3062 19.1571 43.4822L18.3934 43.6118C17.9065 43.6992 17.2922 43.7363 16.5506 43.7258C15.8094 43.7156 15.0399 43.6395 14.2432 43.4979C13.4461 43.3575 12.7047 43.032 12.0185 42.522C11.3326 42.012 10.8457 41.3445 10.5579 40.5204L10.2258 39.7714C10.0045 39.2727 9.65612 38.7187 9.18014 38.1115C8.70415 37.5037 8.22282 37.0916 7.7359 36.8747L7.50343 36.7115C7.34853 36.6031 7.20479 36.4723 7.07187 36.3206C6.93906 36.1688 6.83963 36.0169 6.77323 35.8648C6.70671 35.7126 6.76183 35.5878 6.93918 35.4899C7.11652 35.3919 7.43703 35.3444 7.90208 35.3444L8.56588 35.4416C9.00861 35.5286 9.55623 35.7885 10.2094 36.2227C10.8623 36.6567 11.399 37.2208 11.8196 37.9149C12.329 38.8049 12.9427 39.483 13.6624 39.9497C14.3816 40.4163 15.1066 40.6493 15.837 40.6493C16.5673 40.6493 17.198 40.595 17.7295 40.487C18.2604 40.3785 18.7585 40.2153 19.2235 39.9985C19.4227 38.5439 19.9651 37.4265 20.8502 36.6454C19.5887 36.5154 18.4545 36.3196 17.447 36.0594C16.4402 35.7987 15.3997 35.3757 14.3263 34.7893C13.2524 34.2036 12.3614 33.4763 11.6533 32.6087C10.9451 31.7406 10.3639 30.6009 9.91045 29.1907C9.4568 27.7799 9.22991 26.1525 9.22991 24.308C9.22991 21.6817 10.1044 19.4468 11.8531 17.6021C11.034 15.6277 11.1113 13.4142 12.0854 10.962C12.7273 10.7665 13.6793 10.9132 14.9408 11.4013C16.2026 11.8896 17.1264 12.308 17.7132 12.6548C18.3 13.0015 18.7702 13.2953 19.1244 13.5336C21.1834 12.9696 23.3082 12.6875 25.4994 12.6875C27.6905 12.6875 29.8158 12.9696 31.8749 13.5336L33.1365 12.7527C33.9993 12.2317 35.0181 11.7542 36.1906 11.3202C37.3638 10.8863 38.2608 10.7669 38.8809 10.9624C39.8766 13.4147 39.9653 15.628 39.1459 17.6025C40.8945 19.4472 41.7694 21.6826 41.7694 24.3083C41.7694 26.1528 41.5417 27.7854 41.0887 29.207C40.6352 30.6288 40.049 31.7674 39.3298 32.625C38.6098 33.4824 37.7132 34.204 36.6398 34.7896C35.5662 35.3756 34.5254 35.7986 33.5185 36.0592C32.5112 36.3199 31.377 36.5157 30.1155 36.6459C31.2661 37.6221 31.8415 39.163 31.8415 41.2679V48.1357C31.8415 48.5258 31.9799 48.8515 32.2569 49.1118C32.5336 49.3717 32.9705 49.4482 33.5682 49.3393C38.704 47.6687 42.8931 44.6577 46.1357 40.3065C49.378 35.9557 50.9996 31.0572 50.9996 25.6097C50.9985 21.0753 49.8579 16.893 47.579 13.0627Z" fill="white"/>
</svg>
