<svg width="52" height="42" viewBox="0 0 52 42" fill="none" xmlns="http://www.w3.org/2000/svg">
<g clip-path="url(#clip0_4_27)">
<path d="M49.1392 2.31034C47.2329 0.770208 44.9361 0 42.2505 0H9.7503C7.06479 0 4.76796 0.770208 2.86078 2.31034C0.953957 3.85075 0.000366211 5.70578 0.000366211 7.87495V34.1249C0.000366211 36.2938 0.953957 38.1491 2.86078 39.6895C4.76796 41.2299 7.06479 42.0001 9.7503 42.0001H42.2502C44.9357 42.0001 47.2325 41.2299 49.1389 39.6895C51.0461 38.1491 51.9996 36.2939 51.9996 34.1249V7.87495C51.9995 5.70578 51.0459 3.85047 49.1392 2.31034ZM15.8439 35.1638H8.0236V16.1872H15.8439V35.1638ZM15.1334 12.6739C14.3211 13.3028 13.2489 13.6173 11.9172 13.6173H11.883C10.5967 13.6173 9.55323 13.3028 8.75177 12.6739C7.9502 12.0449 7.54965 11.2657 7.54965 10.336C7.54965 9.38817 7.96182 8.60417 8.78533 7.98423C9.60944 7.36448 10.6757 7.05446 11.9845 7.05446C13.2935 7.05446 14.343 7.36448 15.1331 7.98423C15.9229 8.60417 16.3293 9.38817 16.3517 10.336C16.3516 11.2653 15.9458 12.0445 15.1334 12.6739ZM43.9768 35.1638H36.1564V25.0195C36.1564 22.1579 34.8478 20.7267 32.2296 20.7267C31.2367 20.7267 30.4012 20.9499 29.7244 21.3966C29.0467 21.843 28.5391 22.3854 28.201 23.0239C28.0427 23.3516 27.964 23.8619 27.964 24.5544V35.1637H20.1436C20.2113 23.716 20.2113 17.3902 20.1436 16.187H27.964V18.8662C29.6083 16.7897 31.9432 15.7493 34.972 15.7493C37.6802 15.7493 39.8585 16.4695 41.506 17.9094C43.1536 19.3495 43.9772 21.4735 43.9772 24.2801V35.1638H43.9768Z" fill="white"/>
</g>
<defs>
<clipPath id="clip0_4_27">
<rect width="52" height="42" fill="white"/>
</clipPath>
</defs>
</svg>
