<svg width="46" height="49" viewBox="0 0 46 49" fill="none" xmlns="http://www.w3.org/2000/svg">
<g clip-path="url(#clip0_4_45)">
<path d="M46 9.32801C44.1903 10.1572 42.3801 10.675 40.5712 10.883C42.6144 9.57717 43.9963 7.73242 44.7164 5.34882C42.8474 6.53006 40.8533 7.3382 38.7325 7.77369C36.8643 5.65951 34.5686 4.60199 31.8438 4.60199C29.2367 4.60199 27.0137 5.58121 25.1742 7.5401C23.3356 9.49888 22.4162 11.8668 22.4162 14.6442C22.4162 15.3902 22.4939 16.1574 22.6497 16.945C18.7968 16.7378 15.1825 15.7066 11.8062 13.8515C8.43005 11.9962 5.56479 9.52436 3.21038 6.43608C2.35418 7.99029 1.92593 9.67987 1.92593 11.5038C1.92593 13.2242 2.30532 14.8205 3.0646 16.2921C3.82336 17.7636 4.84517 18.9553 6.12952 19.8674C4.61147 19.8051 3.19106 19.3801 1.86807 18.5924V18.7168C1.86807 21.1421 2.58318 23.2714 4.01321 25.1064C5.44344 26.9411 7.24835 28.096 9.42753 28.573C8.61018 28.8007 7.78302 28.9147 6.94646 28.9147C6.40156 28.9147 5.808 28.863 5.16598 28.76C5.76915 30.7702 6.87837 32.4227 8.49323 33.7188C10.1084 35.0143 11.9375 35.682 13.9807 35.7245C10.5562 38.5844 6.65479 40.0144 2.27659 40.0144C1.43972 40.0144 0.681051 39.9738 -0.00012207 39.8903C4.37818 42.8955 9.20385 44.3981 14.4772 44.3981C17.8241 44.3981 20.9667 43.8339 23.904 42.704C26.8428 41.5748 29.3527 40.0613 31.435 38.1644C33.5166 36.2679 35.3121 34.0863 36.8199 31.6199C38.3279 29.1532 39.4512 26.578 40.1913 23.8939C40.9304 21.2092 41.3003 18.5203 41.3003 15.8253C41.3003 15.2449 41.2905 14.8098 41.2709 14.5195C43.12 13.0899 44.6961 11.3589 46 9.32801Z" fill="white"/>
</g>
<defs>
<clipPath id="clip0_4_45">
<rect width="46" height="49" fill="white"/>
</clipPath>
</defs>
</svg>
