<svg width="500" height="500" viewBox="0 0 307 384" fill="none" xmlns="http://www.w3.org/2000/svg">
<g clip-path="url(#clip0_2_7)">
<path d="M222.884 217.905V323.982L236.241 352.899L237.258 355.098H289.964L291.029 217.905H222.884Z" fill="#E6E6E6"/>
<path opacity="0.1" d="M222.884 217.905V323.982L236.241 352.899L237.061 217.905H222.884Z" fill="black"/>
<path d="M95.6439 215.075V321.153L82.2862 350.07L81.2696 352.269H28.5637L27.4988 215.075H95.6439Z" fill="#E6E6E6"/>
<path opacity="0.1" d="M95.6439 215.075V321.153L82.2862 350.07L81.4665 215.075H95.6439Z" fill="black"/>
<path d="M307 212.954V219.319H20.5778V210.125L47.1969 191.738H283.575L307 212.954Z" fill="#E6E6E6"/>
<path opacity="0.1" d="M307 212.954V219.319H20.5778V210.125L307 212.954Z" fill="black"/>
<path d="M61.5715 244.777H48.7941L43.4702 239.827H67.4276L61.5715 244.777Z" fill="#3F3D56"/>
<path d="M61.5715 265.286H48.7941L43.4702 260.335H67.4276L61.5715 265.286Z" fill="#3F3D56"/>
<path d="M61.5715 294.281H48.7941L43.4702 289.33H67.4276L61.5715 294.281Z" fill="#3F3D56"/>
<path d="M61.5715 323.275H48.7941L43.4702 318.325H67.4276L61.5715 323.275Z" fill="#3F3D56"/>
<path d="M256.956 247.606H269.733L275.057 242.656H251.1L256.956 247.606Z" fill="#3F3D56"/>
<path d="M256.956 268.114H269.733L275.057 263.164H251.1L256.956 268.114Z" fill="#3F3D56"/>
<path d="M256.956 297.109H269.733L275.057 292.159H251.1L256.956 297.109Z" fill="#3F3D56"/>
<path d="M256.956 326.103H269.733L275.057 321.153H251.1L256.956 326.103Z" fill="#3F3D56"/>
<path d="M265.657 69.0703H158.091C157.556 69.0703 157.027 69.21 156.534 69.4815C156.04 69.753 155.592 70.1511 155.214 70.6529C154.836 71.1547 154.537 71.7504 154.332 72.406C154.128 73.0617 154.023 73.7644 154.023 74.4741V170.725C154.023 171.434 154.128 172.137 154.332 172.793C154.537 173.448 154.836 174.044 155.214 174.546C155.592 175.048 156.04 175.446 156.534 175.717C157.027 175.989 157.556 176.128 158.091 176.128H198.924L197.394 189.102C197.394 189.102 188.651 195.272 194.798 195.453C200.946 195.635 229.905 195.453 229.905 195.453C229.905 195.453 235.506 195.453 226.627 188.921L225.188 176.128H265.657C266.191 176.128 266.72 175.989 267.214 175.717C267.707 175.446 268.156 175.048 268.534 174.546C268.911 174.044 269.211 173.448 269.416 172.793C269.62 172.137 269.725 171.434 269.725 170.725V74.4741C269.725 73.7644 269.62 73.0617 269.416 72.406C269.211 71.7504 268.911 71.1547 268.534 70.6529C268.156 70.1511 267.707 69.753 267.214 69.4815C266.72 69.21 266.191 69.0703 265.657 69.0703V69.0703Z" fill="#3F3D56"/>
<path d="M265.832 74.7861H157.916V154.989H265.832V74.7861Z" fill="#F2F2F2"/>
<path d="M211.874 73.153C212.251 73.153 212.557 72.7468 212.557 72.2458C212.557 71.7447 212.251 71.3385 211.874 71.3385C211.497 71.3385 211.191 71.7447 211.191 72.2458C211.191 72.7468 211.497 73.153 211.874 73.153Z" fill="#F2F2F2"/>
<path d="M211.874 172.227C213.307 172.227 214.469 170.684 214.469 168.779C214.469 166.875 213.307 165.332 211.874 165.332C210.44 165.332 209.278 166.875 209.278 168.779C209.278 170.684 210.44 172.227 211.874 172.227Z" fill="#F2F2F2"/>
<path d="M207.829 205.252V207.067H134.337V205.615L134.438 205.252L136.25 198.72H206.327L207.829 205.252Z" fill="#3F3D56"/>
<path d="M236.112 203.475C235.978 204.236 235.472 205.038 234.33 205.796C230.232 208.518 221.899 205.07 221.899 205.07C221.899 205.07 215.479 203.619 215.479 199.808C215.659 199.644 215.847 199.496 216.042 199.364C217.765 198.153 223.477 195.165 233.607 199.49C234.353 199.801 235.02 200.382 235.532 201.166C235.759 201.463 235.93 201.827 236.031 202.228C236.132 202.63 236.159 203.057 236.112 203.475Z" fill="#3F3D56"/>
<path opacity="0.1" d="M236.112 203.475C231.096 206.028 226.624 206.219 222.036 201.986C220.301 200.282 218.2 199.363 216.042 199.364C217.765 198.153 223.478 195.165 233.607 199.49C234.353 199.801 235.02 200.382 235.532 201.166C235.759 201.463 235.93 201.827 236.031 202.228C236.132 202.63 236.159 203.057 236.112 203.475Z" fill="black"/>
<path d="M229.822 201.986C230.803 201.986 231.598 201.661 231.598 201.26C231.598 200.859 230.803 200.534 229.822 200.534C228.842 200.534 228.046 200.859 228.046 201.26C228.046 201.661 228.842 201.986 229.822 201.986Z" fill="#F2F2F2"/>
<path opacity="0.1" d="M207.829 205.252V207.067H134.337V205.615L134.438 205.252H207.829Z" fill="black"/>
<path d="M40.8627 9.49634e-05C40.1168 -0.0812507 39.37 0.140373 38.7211 0.6356C38.0839 1.2152 37.6823 2.2306 37.2724 3.17548C35.7052 6.8313 33.5834 10.0149 31.0416 12.5247C29.1901 14.3263 26.8363 16.5727 27.1531 19.8945C27.3202 20.9915 27.6253 22.0432 28.0555 23.0055C29.7635 27.5853 34.4242 31.1245 33.9658 36.3504C35.6627 32.5769 33.393 30.711 35.0899 26.9375C35.898 25.1404 37.3018 23.1119 38.5219 24.2404C38.9304 24.6183 39.1987 25.296 39.624 25.6276C40.639 26.4187 41.7188 24.9063 42.6172 23.8349C45.7152 20.1407 50.1209 21.1085 53.9762 22.2595C55.7962 22.8029 57.7953 23.5159 58.8712 25.8265C60.2858 28.8646 57.5272 32.1457 56.8302 35.5805C56.7733 35.8731 56.7706 36.1798 56.8224 36.4741C56.8741 36.7685 56.9788 37.0418 57.1274 37.2707C57.276 37.4996 57.4641 37.6773 57.6757 37.7886C57.8873 37.8999 58.116 37.9414 58.3423 37.9097C59.4991 37.7581 60.8694 37.6339 60.9379 36.9596C62.3933 37.0284 64.1766 36.8095 64.8002 34.7964C64.9908 34 65.0915 33.1704 65.0991 32.3347C65.328 28.9532 66.4084 25.8683 67.1242 22.6499C67.8399 19.4315 68.1511 15.6598 66.9433 12.8064C66.5122 11.857 65.979 10.9963 65.3607 10.2515C58.5062 1.44013 49.494 -0.0129844 40.8627 9.49634e-05Z" fill="#2F2E41"/>
<path d="M35.4566 42.9511C35.4566 42.9511 36.9473 59.4528 31.4812 60.7729C26.0152 62.0931 36.4504 84.5354 36.4504 84.5354L61.2961 88.4958L55.3331 62.0931C55.3331 62.0931 51.3578 60.1128 53.8424 46.9115C56.3269 33.7101 35.4566 42.9511 35.4566 42.9511Z" fill="#563D3D"/>
<path d="M20.3007 326.45L22.2885 362.754H32.7233L29.7422 326.45H20.3007Z" fill="#563D3D"/>
<path d="M96.8253 257.803L98.3159 288.166L109.745 281.566L105.273 256.483L96.8253 257.803Z" fill="#563D3D"/>
<path d="M12.847 187.836C12.847 187.836 13.3439 226.12 16.3254 238.661C19.3069 251.203 18.81 251.863 18.3131 253.843C17.8162 255.823 17.3192 254.503 17.3192 257.803C17.3192 261.104 16.3254 313.249 17.3192 317.87C18.3131 322.49 14.3378 330.411 17.3192 331.071C20.3007 331.731 34.2143 331.071 34.7112 327.11C35.2081 323.15 30.7359 321.83 32.7236 319.19C34.7112 316.549 37.6927 262.424 37.6927 262.424L44.6495 224.8L57.5692 204.998H84.8994L93.347 248.562C93.347 248.562 89.8686 261.104 92.3531 261.104C94.8377 261.104 109.745 265.064 109.745 250.543C109.745 236.021 104.776 193.117 103.782 191.796C102.788 190.476 104.279 185.856 102.788 183.876C101.298 181.895 83.9056 168.034 77.4458 165.394C70.9859 162.753 61.9238 159.611 61.9238 159.611L12.847 187.836Z" fill="#2F2E41"/>
<path d="M109.745 276.285C109.745 276.285 102.291 272.985 98.813 282.886C95.3346 292.787 96.8254 295.427 96.8254 295.427C96.8254 295.427 108.254 300.708 110.242 298.068C111.107 296.919 113.853 296.52 116.679 296.435C120.984 296.307 122.13 288.217 118.064 286.333C117.943 286.277 117.82 286.228 117.696 286.186C113.72 284.866 109.745 276.285 109.745 276.285Z" fill="#2F2E41"/>
<path d="M46.6371 53.8422C54.8702 53.8422 61.5445 44.9765 61.5445 34.0402C61.5445 23.1038 54.8702 14.2381 46.6371 14.2381C38.404 14.2381 31.7297 23.1038 31.7297 34.0402C31.7297 44.9765 38.404 53.8422 46.6371 53.8422Z" fill="#563D3D"/>
<path d="M27.2575 69.0238C27.2575 69.0238 51.6062 75.6245 57.5692 65.0634C63.5322 54.5023 66.0167 94.7664 66.0167 94.7664L68.9982 137.011L64.526 160.113C64.526 160.113 41.1711 185.196 33.7174 187.176C26.2637 189.156 14.8346 190.476 14.8346 190.476C14.8346 190.476 18.3131 117.209 18.3131 115.889C18.3131 114.568 27.2575 69.0238 27.2575 69.0238Z" fill="#6C63FF"/>
<path d="M34.6625 56.6444C34.6625 56.6444 29.2451 52.5221 27.7544 56.4825C26.2637 60.4429 12.3501 70.3439 10.8593 70.3439C9.3686 70.3439 13.8408 125.13 11.8532 131.73C9.86551 138.331 0.42416 186.516 5.89021 190.476C11.3563 194.437 7.38095 186.516 12.847 196.417C18.313 206.318 45.1464 206.318 46.6371 202.358C48.1278 198.397 34.7112 168.694 37.1957 140.971C39.6803 113.248 43.6556 74.9644 40.1772 69.6839C36.6988 64.4033 34.6625 56.6444 34.6625 56.6444Z" fill="#2F2E41"/>
<path d="M52.6001 61.103L53.2922 57.9389C53.2922 57.9389 73.9674 67.0436 74.9612 72.9842C75.955 78.9248 75.4581 120.509 71.9797 123.809C68.5013 127.11 63.5322 132.39 67.0106 140.311C70.489 148.232 74.4643 156.813 77.4458 157.473C80.4273 158.133 85.8933 162.753 84.4025 167.374C82.9118 171.994 65.0229 163.414 65.0229 163.414C65.0229 163.414 53.097 151.532 53.5939 133.05C54.0908 114.568 52.6001 61.103 52.6001 61.103Z" fill="#2F2E41"/>
<path d="M69.992 138.991L58.0661 168.694C58.0661 168.694 40.6742 192.457 50.6124 195.097C60.5507 197.737 66.0167 173.315 66.0167 173.315L78.9365 148.892L69.992 138.991Z" fill="#563D3D"/>
<path d="M41.5889 5.18123C40.9881 5.12209 40.3862 5.27716 39.8455 5.63041C39.3567 6.10465 38.9538 6.71798 38.6663 7.42558C37.3409 10.0739 35.6132 12.3247 33.5941 14.0335C32.087 15.3069 30.1709 16.8946 30.4287 19.2424C30.5687 20.0296 30.8178 20.7753 31.1634 21.4413C32.5585 24.711 33.1139 28.4953 32.7455 32.2217L36.8896 24.2204C37.5475 22.9503 38.6902 21.5165 39.6834 22.3142C40.016 22.5812 40.2343 23.0603 40.5806 23.2946C41.4068 23.8538 42.2858 22.7848 43.0172 22.0276C45.5391 19.4165 49.1255 20.1005 52.2638 20.9141C53.7454 21.2981 55.3728 21.802 56.2486 23.4352C57.7041 26.1492 56.1843 30.0707 57.0337 33.206C57.2715 32.9849 57.4734 32.7026 57.6276 32.3759C57.7817 32.0491 57.8849 31.6846 57.931 31.304C59.1157 31.3526 60.5674 31.1979 61.075 29.775C61.2294 29.2174 61.3117 28.6292 61.3184 28.0351C61.5047 25.6451 62.3842 23.4647 62.9669 21.19C63.5495 18.9152 63.8029 16.2494 62.8196 14.2326C62.4599 13.5493 62.0257 12.9407 61.5314 12.4268C55.9515 6.19903 48.6152 5.17199 41.5889 5.18123Z" fill="#2F2E41"/>
<path d="M69.992 70.3439L74.6218 71.9763C74.6218 71.9763 85.3964 108.628 82.9118 133.71C80.4272 158.793 78.9365 153.512 78.9365 153.512C78.9365 153.512 74.9612 141.631 66.0167 144.272L69.992 70.3439Z" fill="#2F2E41"/>
<path d="M20.9892 357.956C19.7909 360.119 20.0311 363.211 18.9697 365.497C18.0496 367.478 16.3156 368.517 15.1647 370.273C14.7975 370.856 14.4702 371.482 14.1865 372.142C13.1189 374.517 12.2512 377.562 13.3026 379.95C14.1484 381.871 15.9262 382.621 17.5567 383.133C19.6176 383.78 21.7588 384.298 23.8434 383.803C25.928 383.309 27.9654 381.614 28.7087 378.98C28.8547 378.317 29.0284 377.666 29.2288 377.03C30.3587 374.075 33.9028 374.043 35.0591 371.106C35.8684 369.051 35.1245 366.567 34.3809 364.469L32.1098 358.06C31.3562 355.933 28.3009 357.156 26.7081 356.646C24.6308 355.982 22.4836 355.249 20.9892 357.956Z" fill="#2F2E41"/>
<path d="M4.39946 152.192L25.2698 195.097C25.2698 195.097 38.1896 216.879 42.1649 206.978C46.1402 197.077 28.2513 180.575 28.2513 180.575L14.8346 147.572L4.39946 152.192Z" fill="#563D3D"/>
<path d="M14.8346 71.664L10.8593 70.3439C10.8593 70.3439 2.90872 73.6442 0.921069 87.5057C-1.06658 101.367 0.424154 156.813 2.90872 157.473C5.39329 158.133 15.18 147.819 16.7465 150.006C18.313 152.192 13.3439 140.971 14.8346 135.031C16.3253 129.09 14.8346 71.664 14.8346 71.664Z" fill="#2F2E41"/>
<path d="M201.66 101.127H188.816V105.235H201.66V101.127Z" fill="#6C63FF"/>
<path d="M246.135 101.127H241.616V105.235H246.135V101.127Z" fill="#6C63FF"/>
<path d="M255.173 101.127H250.654V105.235H255.173V101.127Z" fill="#6C63FF"/>
<path d="M236.86 101.127H206.179V105.235H236.86V101.127Z" fill="#6C63FF"/>
<path d="M185.487 127.665H172.643V131.773H185.487V127.665Z" fill="#6C63FF"/>
<path d="M229.962 127.665H225.443V131.773H229.962V127.665Z" fill="#6C63FF"/>
<path d="M239 127.665H234.481V131.773H239V127.665Z" fill="#6C63FF"/>
<path d="M220.687 127.665H190.006V131.773H220.687V127.665Z" fill="#6C63FF"/>
<path d="M238.525 110.289H225.681V114.396H238.525V110.289Z" fill="#6C63FF"/>
<path d="M255.887 110.289H243.043V114.396H255.887V110.289Z" fill="#6C63FF"/>
<path d="M177.162 110.289H172.643V114.396H177.162V110.289Z" fill="#6C63FF"/>
<path d="M186.2 110.289H181.681V114.396H186.2V110.289Z" fill="#6C63FF"/>
<path d="M221.4 110.289H190.719V114.396H221.4V110.289Z" fill="#6C63FF"/>
<path d="M211.887 119.135H199.043V123.242H211.887V119.135Z" fill="#6C63FF"/>
<path d="M194.524 119.135H181.681V123.242H194.524V119.135Z" fill="#6C63FF"/>
<path d="M177.162 119.135H172.643V123.242H177.162V119.135Z" fill="#6C63FF"/>
<path d="M255.887 119.135H251.368V123.242H255.887V119.135Z" fill="#6C63FF"/>
<path d="M246.849 119.135H216.168V123.242H246.849V119.135Z" fill="#6C63FF"/>
</g>
<defs>
<clipPath id="clip0_2_7">
<rect width="307" height="384" fill="white"/>
</clipPath>
</defs>
</svg>
